<mxfile host="65bd71144e">
    <diagram id="Q3M7s9UXIdstA7WXuL0q" name="Página-1">
        <mxGraphModel dx="1377" dy="777" grid="1" gridSize="10" guides="1" tooltips="1" connect="1" arrows="1" fold="1" page="1" pageScale="1" pageWidth="1169" pageHeight="827" background="#787878" math="0" shadow="0">
            <root>
                <mxCell id="0"/>
                <mxCell id="1" parent="0"/>
                <mxCell id="3" value="posts" style="rounded=1;whiteSpace=wrap;html=1;fillColor=#1ba1e2;fontColor=#ffffff;strokeColor=#006EAF;" vertex="1" parent="1">
                    <mxGeometry x="134" y="31" width="101" height="50" as="geometry"/>
                </mxCell>
                <mxCell id="5" value="comentarios" style="rounded=1;whiteSpace=wrap;html=1;fillColor=#1ba1e2;fontColor=#ffffff;strokeColor=#006EAF;" vertex="1" parent="1">
                    <mxGeometry x="544" y="166" width="80" height="30" as="geometry"/>
                </mxCell>
                <mxCell id="6" value="categorías" style="rounded=1;whiteSpace=wrap;html=1;fillColor=#1ba1e2;fontColor=#ffffff;strokeColor=#006EAF;" vertex="1" parent="1">
                    <mxGeometry x="744" y="166" width="80" height="30" as="geometry"/>
                </mxCell>
                <mxCell id="8" value="IDCategory" style="ellipse;whiteSpace=wrap;html=1;strokeColor=#2D7600;fillColor=#60a917;fontColor=#ffffff;" vertex="1" parent="1">
                    <mxGeometry x="797" y="235" width="120" height="40" as="geometry"/>
                </mxCell>
                <mxCell id="9" value="IDComent" style="ellipse;whiteSpace=wrap;html=1;strokeColor=#2D7600;fillColor=#60a917;fontColor=#ffffff;" vertex="1" parent="1">
                    <mxGeometry x="595" y="236" width="120" height="40" as="geometry"/>
                </mxCell>
                <mxCell id="31" value="Fecha_Publicación" style="ellipse;whiteSpace=wrap;html=1;strokeColor=#666666;fillColor=#f5f5f5;fontColor=#333333;" vertex="1" parent="1">
                    <mxGeometry x="595" y="296" width="120" height="40" as="geometry"/>
                </mxCell>
                <mxCell id="32" value="IDPost" style="ellipse;whiteSpace=wrap;html=1;strokeColor=#666666;fillColor=#f5f5f5;fontColor=#333333;" vertex="1" parent="1">
                    <mxGeometry x="595" y="376" width="120" height="40" as="geometry"/>
                </mxCell>
                <mxCell id="33" value="IdUser" style="ellipse;whiteSpace=wrap;html=1;strokeColor=#666666;fillColor=#f5f5f5;fontColor=#333333;" vertex="1" parent="1">
                    <mxGeometry x="595" y="436" width="120" height="40" as="geometry"/>
                </mxCell>
                <mxCell id="51" value="" style="group" vertex="1" connectable="0" parent="1">
                    <mxGeometry x="343" y="166" width="170" height="430" as="geometry"/>
                </mxCell>
                <mxCell id="4" value="ususarios" style="rounded=1;whiteSpace=wrap;html=1;fillColor=#1ba1e2;fontColor=#ffffff;strokeColor=#006EAF;" vertex="1" parent="51">
                    <mxGeometry width="80" height="30" as="geometry"/>
                </mxCell>
                <mxCell id="10" value="IDusuario" style="ellipse;whiteSpace=wrap;html=1;strokeColor=#2D7600;fillColor=#60a917;fontColor=#ffffff;" vertex="1" parent="51">
                    <mxGeometry x="50" y="70" width="120" height="40" as="geometry"/>
                </mxCell>
                <mxCell id="20" value="Nombre" style="ellipse;whiteSpace=wrap;html=1;strokeColor=#666666;fillColor=#f5f5f5;fontColor=#333333;" vertex="1" parent="51">
                    <mxGeometry x="50" y="140" width="120" height="40" as="geometry"/>
                </mxCell>
                <mxCell id="21" value="Email" style="ellipse;whiteSpace=wrap;html=1;strokeColor=#666666;fillColor=#f5f5f5;fontColor=#333333;" vertex="1" parent="51">
                    <mxGeometry x="50" y="200" width="120" height="40" as="geometry"/>
                </mxCell>
                <mxCell id="22" value="Telefono" style="ellipse;whiteSpace=wrap;html=1;strokeColor=#666666;fillColor=#f5f5f5;fontColor=#333333;" vertex="1" parent="51">
                    <mxGeometry x="50" y="260" width="120" height="40" as="geometry"/>
                </mxCell>
                <mxCell id="23" value="Password" style="ellipse;whiteSpace=wrap;html=1;strokeColor=#666666;fillColor=#f5f5f5;fontColor=#333333;" vertex="1" parent="51">
                    <mxGeometry x="50" y="320" width="120" height="40" as="geometry"/>
                </mxCell>
                <mxCell id="24" value="Apellido" style="ellipse;whiteSpace=wrap;html=1;strokeColor=#666666;fillColor=#f5f5f5;fontColor=#333333;" vertex="1" parent="51">
                    <mxGeometry x="50" y="390" width="120" height="40" as="geometry"/>
                </mxCell>
                <mxCell id="36" value="" style="group" vertex="1" connectable="0" parent="51">
                    <mxGeometry y="89.5" width="50" height="320.5" as="geometry"/>
                </mxCell>
                <mxCell id="16" value="" style="edgeStyle=segmentEdgeStyle;endArrow=classic;html=1;exitX=0;exitY=1;exitDx=0;exitDy=0;" edge="1" parent="36" source="4">
                    <mxGeometry width="50" height="50" relative="1" as="geometry">
                        <mxPoint x="-60" y="280.5" as="sourcePoint"/>
                        <mxPoint x="50" y="320.5" as="targetPoint"/>
                        <Array as="points">
                            <mxPoint y="320.5"/>
                        </Array>
                    </mxGeometry>
                </mxCell>
                <mxCell id="19" value="" style="endArrow=classic;html=1;startSize=0;entryX=0;entryY=0.5;entryDx=0;entryDy=0;" edge="1" parent="36" target="20">
                    <mxGeometry width="50" height="50" relative="1" as="geometry">
                        <mxPoint y="69.5" as="sourcePoint"/>
                        <mxPoint x="40" y="69.5" as="targetPoint"/>
                    </mxGeometry>
                </mxCell>
                <mxCell id="25" value="" style="endArrow=classic;html=1;startSize=0;entryX=0;entryY=0.5;entryDx=0;entryDy=0;" edge="1" parent="36">
                    <mxGeometry width="50" height="50" relative="1" as="geometry">
                        <mxPoint as="sourcePoint"/>
                        <mxPoint x="50" y="1" as="targetPoint"/>
                    </mxGeometry>
                </mxCell>
                <mxCell id="26" value="" style="endArrow=classic;html=1;startSize=0;entryX=0;entryY=0.5;entryDx=0;entryDy=0;" edge="1" parent="36">
                    <mxGeometry width="50" height="50" relative="1" as="geometry">
                        <mxPoint y="130" as="sourcePoint"/>
                        <mxPoint x="50" y="131" as="targetPoint"/>
                    </mxGeometry>
                </mxCell>
                <mxCell id="27" value="" style="endArrow=classic;html=1;startSize=0;entryX=0;entryY=0.5;entryDx=0;entryDy=0;" edge="1" parent="36">
                    <mxGeometry width="50" height="50" relative="1" as="geometry">
                        <mxPoint y="190" as="sourcePoint"/>
                        <mxPoint x="50" y="191" as="targetPoint"/>
                    </mxGeometry>
                </mxCell>
                <mxCell id="28" value="" style="endArrow=classic;html=1;startSize=0;entryX=0;entryY=0.5;entryDx=0;entryDy=0;" edge="1" parent="36">
                    <mxGeometry width="50" height="50" relative="1" as="geometry">
                        <mxPoint y="250" as="sourcePoint"/>
                        <mxPoint x="50" y="251" as="targetPoint"/>
                    </mxGeometry>
                </mxCell>
                <mxCell id="52" value="" style="edgeStyle=segmentEdgeStyle;endArrow=classic;html=1;startSize=0;exitX=0;exitY=1;exitDx=0;exitDy=0;entryX=0;entryY=0.5;entryDx=0;entryDy=0;" edge="1" parent="1" source="5" target="53">
                    <mxGeometry width="50" height="50" relative="1" as="geometry">
                        <mxPoint x="525" y="566" as="sourcePoint"/>
                        <mxPoint x="595" y="566" as="targetPoint"/>
                        <Array as="points">
                            <mxPoint x="545" y="519"/>
                            <mxPoint x="595" y="519"/>
                        </Array>
                    </mxGeometry>
                </mxCell>
                <mxCell id="53" value="Relaciones" style="ellipse;shape=doubleEllipse;whiteSpace=wrap;html=1;shadow=0;sketch=0;strokeColor=#666666;fillColor=#f5f5f5;fontColor=#333333;" vertex="1" parent="1">
                    <mxGeometry x="605" y="496" width="120" height="45" as="geometry"/>
                </mxCell>
                <mxCell id="55" value="" style="endArrow=classic;html=1;startSize=0;entryX=0;entryY=0.5;entryDx=0;entryDy=0;" edge="1" parent="1">
                    <mxGeometry width="50" height="50" relative="1" as="geometry">
                        <mxPoint x="545" y="455.5" as="sourcePoint"/>
                        <mxPoint x="595" y="456.5" as="targetPoint"/>
                    </mxGeometry>
                </mxCell>
                <mxCell id="56" value="" style="endArrow=classic;html=1;startSize=0;entryX=0;entryY=0.5;entryDx=0;entryDy=0;" edge="1" parent="1">
                    <mxGeometry width="50" height="50" relative="1" as="geometry">
                        <mxPoint x="545" y="395.5" as="sourcePoint"/>
                        <mxPoint x="595" y="396.5" as="targetPoint"/>
                    </mxGeometry>
                </mxCell>
                <mxCell id="57" value="" style="endArrow=classic;html=1;startSize=0;entryX=0;entryY=0.5;entryDx=0;entryDy=0;" edge="1" parent="1">
                    <mxGeometry width="50" height="50" relative="1" as="geometry">
                        <mxPoint x="545" y="315.5" as="sourcePoint"/>
                        <mxPoint x="595" y="316.5" as="targetPoint"/>
                    </mxGeometry>
                </mxCell>
                <mxCell id="58" value="" style="endArrow=classic;html=1;startSize=0;entryX=0;entryY=0.5;entryDx=0;entryDy=0;" edge="1" parent="1">
                    <mxGeometry width="50" height="50" relative="1" as="geometry">
                        <mxPoint x="545" y="255.5" as="sourcePoint"/>
                        <mxPoint x="595" y="256.5" as="targetPoint"/>
                    </mxGeometry>
                </mxCell>
                <mxCell id="60" value="Tema" style="ellipse;whiteSpace=wrap;html=1;strokeColor=#666666;fillColor=#f5f5f5;fontColor=#333333;" vertex="1" parent="1">
                    <mxGeometry x="795" y="316" width="120" height="40" as="geometry"/>
                </mxCell>
                <mxCell id="61" value="Etiquetas" style="ellipse;whiteSpace=wrap;html=1;strokeColor=#666666;fillColor=#f5f5f5;fontColor=#333333;" vertex="1" parent="1">
                    <mxGeometry x="792" y="396" width="120" height="40" as="geometry"/>
                </mxCell>
                <mxCell id="63" value="" style="edgeStyle=segmentEdgeStyle;endArrow=classic;html=1;startSize=0;exitX=0;exitY=1;exitDx=0;exitDy=0;" edge="1" parent="1">
                    <mxGeometry width="50" height="50" relative="1" as="geometry">
                        <mxPoint x="746" y="196" as="sourcePoint"/>
                        <mxPoint x="794" y="416" as="targetPoint"/>
                        <Array as="points">
                            <mxPoint x="746" y="416"/>
                            <mxPoint x="794" y="416"/>
                        </Array>
                    </mxGeometry>
                </mxCell>
                <mxCell id="64" value="" style="endArrow=classic;html=1;startSize=0;entryX=0;entryY=0.5;entryDx=0;entryDy=0;" edge="1" parent="1">
                    <mxGeometry width="50" height="50" relative="1" as="geometry">
                        <mxPoint x="747" y="255.5" as="sourcePoint"/>
                        <mxPoint x="797" y="256.5" as="targetPoint"/>
                    </mxGeometry>
                </mxCell>
                <mxCell id="65" value="" style="endArrow=classic;html=1;startSize=0;entryX=0;entryY=0.5;entryDx=0;entryDy=0;" edge="1" parent="1">
                    <mxGeometry width="50" height="50" relative="1" as="geometry">
                        <mxPoint x="747" y="336" as="sourcePoint"/>
                        <mxPoint x="797" y="337" as="targetPoint"/>
                    </mxGeometry>
                </mxCell>
                <mxCell id="66" value="" style="edgeStyle=elbowEdgeStyle;elbow=horizontal;endArrow=classic;html=1;startSize=0;exitX=1;exitY=0.25;exitDx=0;exitDy=0;entryX=0.5;entryY=0;entryDx=0;entryDy=0;" edge="1" parent="1" source="3" target="6">
                    <mxGeometry width="50" height="50" relative="1" as="geometry">
                        <mxPoint x="344" y="61" as="sourcePoint"/>
                        <mxPoint x="754" y="46" as="targetPoint"/>
                        <Array as="points">
                            <mxPoint x="784" y="71"/>
                            <mxPoint x="254" y="56"/>
                            <mxPoint x="771" y="71"/>
                            <mxPoint x="434" y="51"/>
                            <mxPoint x="294" y="46"/>
                            <mxPoint x="214" y="-309"/>
                        </Array>
                    </mxGeometry>
                </mxCell>
                <mxCell id="67" value="" style="edgeStyle=elbowEdgeStyle;elbow=horizontal;endArrow=classic;html=1;startSize=0;exitX=1;exitY=0.5;exitDx=0;exitDy=0;entryX=0.5;entryY=0;entryDx=0;entryDy=0;" edge="1" parent="1" source="3" target="5">
                    <mxGeometry width="50" height="50" relative="1" as="geometry">
                        <mxPoint x="-16" y="53.5" as="sourcePoint"/>
                        <mxPoint x="584" y="161" as="targetPoint"/>
                        <Array as="points">
                            <mxPoint x="584" y="121"/>
                            <mxPoint x="592" y="131"/>
                            <mxPoint x="564" y="81"/>
                            <mxPoint x="34" y="66"/>
                            <mxPoint x="551" y="81"/>
                            <mxPoint x="214" y="61"/>
                            <mxPoint x="74" y="56"/>
                            <mxPoint x="-6" y="-299"/>
                        </Array>
                    </mxGeometry>
                </mxCell>
                <mxCell id="68" value="" style="edgeStyle=elbowEdgeStyle;elbow=horizontal;endArrow=classic;html=1;startSize=0;exitX=1;exitY=0.75;exitDx=0;exitDy=0;" edge="1" parent="1" source="3">
                    <mxGeometry width="50" height="50" relative="1" as="geometry">
                        <mxPoint x="4" y="61" as="sourcePoint"/>
                        <mxPoint x="384" y="166" as="targetPoint"/>
                        <Array as="points">
                            <mxPoint x="384" y="111"/>
                            <mxPoint x="364" y="86"/>
                            <mxPoint x="-166" y="71"/>
                            <mxPoint x="351" y="86"/>
                            <mxPoint x="14" y="66"/>
                            <mxPoint x="-126" y="61"/>
                            <mxPoint x="-206" y="-294"/>
                        </Array>
                    </mxGeometry>
                </mxCell>
                <mxCell id="84" value="" style="group" vertex="1" connectable="0" parent="1">
                    <mxGeometry x="134" y="235" width="170" height="380" as="geometry"/>
                </mxCell>
                <mxCell id="71" value="IDPost" style="ellipse;whiteSpace=wrap;html=1;strokeColor=#2D7600;fillColor=#60a917;fontColor=#ffffff;" vertex="1" parent="84">
                    <mxGeometry x="50" width="120" height="42.22222222222222" as="geometry"/>
                </mxCell>
                <mxCell id="72" value="Etiquetas" style="ellipse;whiteSpace=wrap;html=1;strokeColor=#666666;fillColor=#f5f5f5;fontColor=#333333;" vertex="1" parent="84">
                    <mxGeometry x="50" y="73.88888888888889" width="120" height="42.22222222222222" as="geometry"/>
                </mxCell>
                <mxCell id="73" value="Titulo" style="ellipse;whiteSpace=wrap;html=1;strokeColor=#666666;fillColor=#f5f5f5;fontColor=#333333;" vertex="1" parent="84">
                    <mxGeometry x="50" y="137.2222222222222" width="120" height="42.22222222222222" as="geometry"/>
                </mxCell>
                <mxCell id="74" value="Fecha_Publicación" style="ellipse;whiteSpace=wrap;html=1;strokeColor=#666666;fillColor=#f5f5f5;fontColor=#333333;" vertex="1" parent="84">
                    <mxGeometry x="50" y="200.55555555555551" width="120" height="42.22222222222222" as="geometry"/>
                </mxCell>
                <mxCell id="75" value="Contenido" style="ellipse;whiteSpace=wrap;html=1;strokeColor=#666666;fillColor=#f5f5f5;fontColor=#333333;" vertex="1" parent="84">
                    <mxGeometry x="50" y="263.8888888888888" width="120" height="42.22222222222222" as="geometry"/>
                </mxCell>
                <mxCell id="76" value="Estatus" style="ellipse;whiteSpace=wrap;html=1;strokeColor=#666666;fillColor=#f5f5f5;fontColor=#333333;" vertex="1" parent="84">
                    <mxGeometry x="50" y="337.77777777777777" width="120" height="42.22222222222222" as="geometry"/>
                </mxCell>
                <mxCell id="77" value="" style="group" vertex="1" connectable="0" parent="84">
                    <mxGeometry y="20.58333333333333" width="50" height="338.30555555555554" as="geometry"/>
                </mxCell>
                <mxCell id="78" value="" style="edgeStyle=segmentEdgeStyle;endArrow=classic;html=1;exitX=0;exitY=1;exitDx=0;exitDy=0;" edge="1" parent="77" source="3">
                    <mxGeometry width="50" height="50" relative="1" as="geometry">
                        <mxPoint y="-86.67028985507245" as="sourcePoint"/>
                        <mxPoint x="50" y="338.30555555555554" as="targetPoint"/>
                        <Array as="points">
                            <mxPoint y="338"/>
                        </Array>
                    </mxGeometry>
                </mxCell>
                <mxCell id="79" value="" style="endArrow=classic;html=1;startSize=0;entryX=0;entryY=0.5;entryDx=0;entryDy=0;" edge="1" parent="77" target="72">
                    <mxGeometry width="50" height="50" relative="1" as="geometry">
                        <mxPoint y="73.36111111111111" as="sourcePoint"/>
                        <mxPoint x="40" y="73.36111111111111" as="targetPoint"/>
                    </mxGeometry>
                </mxCell>
                <mxCell id="80" value="" style="endArrow=classic;html=1;startSize=0;entryX=0;entryY=0.5;entryDx=0;entryDy=0;" edge="1" parent="77">
                    <mxGeometry width="50" height="50" relative="1" as="geometry">
                        <mxPoint as="sourcePoint"/>
                        <mxPoint x="50" y="1.0555555555555554" as="targetPoint"/>
                    </mxGeometry>
                </mxCell>
                <mxCell id="81" value="" style="endArrow=classic;html=1;startSize=0;entryX=0;entryY=0.5;entryDx=0;entryDy=0;" edge="1" parent="77">
                    <mxGeometry width="50" height="50" relative="1" as="geometry">
                        <mxPoint y="137.22222222222223" as="sourcePoint"/>
                        <mxPoint x="50" y="138.27777777777777" as="targetPoint"/>
                    </mxGeometry>
                </mxCell>
                <mxCell id="82" value="" style="endArrow=classic;html=1;startSize=0;entryX=0;entryY=0.5;entryDx=0;entryDy=0;" edge="1" parent="77">
                    <mxGeometry width="50" height="50" relative="1" as="geometry">
                        <mxPoint y="200.55555555555554" as="sourcePoint"/>
                        <mxPoint x="50" y="201.61111111111111" as="targetPoint"/>
                    </mxGeometry>
                </mxCell>
                <mxCell id="83" value="" style="endArrow=classic;html=1;startSize=0;entryX=0;entryY=0.5;entryDx=0;entryDy=0;" edge="1" parent="77">
                    <mxGeometry width="50" height="50" relative="1" as="geometry">
                        <mxPoint y="263.88888888888886" as="sourcePoint"/>
                        <mxPoint x="50" y="264.94444444444446" as="targetPoint"/>
                    </mxGeometry>
                </mxCell>
            </root>
        </mxGraphModel>
    </diagram>
</mxfile>